<svg xmlns="http://www.w3.org/2000/svg" xmlns:xlink="http://www.w3.org/1999/xlink" viewBox="0,0,256,256" width="100px" height="100px" fill-rule="nonzero"><g fill="#1294cb" fill-rule="nonzero" stroke="none" stroke-width="1" stroke-linecap="butt" stroke-linejoin="miter" stroke-miterlimit="10" stroke-dasharray="" stroke-dashoffset="0" font-family="none" font-weight="none" font-size="none" text-anchor="none" style="mix-blend-mode: normal"><g transform="scale(5.12,5.12)"><path d="M22.80273,2c-13.863,0 -18.80273,9.79298 -18.80273,18.95898c0,3.849 1.13706,7.55294 3.28906,10.71094c1.774,2.603 2.71094,5.78608 2.71094,9.20508v6.10742h2v-6.10742c0,-3.823 -1.05859,-7.39408 -3.05859,-10.33008c-1.925,-2.825 -2.94141,-6.13994 -2.94141,-9.58594c0,-8.199 4.41473,-16.95898 16.80273,-16.95898c9.99,0 15.64559,5.02088 16.80859,14.92188l0.02344,0.20508l4.27539,7.43164c0.182,0.331 0.08169,0.71314 -0.19531,0.86914l-4.11133,2.07422v5.46484c0,1.604 -0.66613,3.1305 -1.82812,4.1875c-1.128,1.028 -2.58881,1.51719 -4.13281,1.36719l-3.64258,-0.25195v6.73047h2v-4.58594l1.47852,0.10352c2.089,0.195 4.09258,-0.47181 5.64258,-1.88281c1.577,-1.435 2.48242,-3.50002 2.48242,-5.66602v-4.23437l3.04883,-1.54102c1.28,-0.719 1.724,-2.29923 1,-3.61523l-4.08203,-7.0957c-1.339,-10.784 -7.82358,-16.48242 -18.76758,-16.48242zM18.99805,9c-0.549,0 -0.99414,0.44891 -0.99414,1.00391v0.99609h1.99023v-0.99609c0,-0.555 -0.44709,-1.00391 -0.99609,-1.00391zM22.99414,9c-0.549,0 -0.99609,0.44891 -0.99609,1.00391v0.99609h1.99023v-0.99609c-0.001,-0.555 -0.44514,-1.00391 -0.99414,-1.00391zM27.00391,9c-0.549,0 -0.99414,0.44891 -0.99414,1.00391v0.99609h1.98828v-0.99609c0,-0.555 -0.44514,-1.00391 -0.99414,-1.00391zM18.00195,13c-1.654,0 -3,1.346 -3,3v10c0,1.654 1.346,3 3,3h10c1.655,0 3,-1.346 3,-3v-10c0,-1.654 -1.346,-3 -3,-3zM18.00195,15h10c0.551,0 1,0.449 1,1v10c0,0.551 -0.449,1 -1,1h-10c-0.551,0 -1,-0.449 -1,-1v-10c0,-0.551 0.449,-1 1,-1zM12.00391,16.00586c-0.555,0 -1.00391,0.44514 -1.00391,0.99414c0,0.549 0.44891,0.99414 1.00391,0.99414h0.99609v-1.98828zM33,16.00586v1.98828h0.99609c0.555,0 1.00391,-0.44514 1.00391,-0.99414c0,-0.549 -0.44891,-0.99414 -1.00391,-0.99414zM19.00195,17v8h8v-8zM21.00195,19h4v4h-4zM33,20v1.99023h0.99609c0.554,0 1.00391,-0.44609 1.00391,-0.99609c0,-0.55 -0.44891,-0.99414 -1.00391,-0.99414zM12.00391,20.01563c-0.555,0 -1.00391,0.44514 -1.00391,0.99414c0,0.549 0.44891,0.99609 1.00391,0.99609h0.99609v-1.99023zM12.00391,24.00977c-0.555,0 -1.00391,0.44709 -1.00391,0.99609c0,0.55 0.44891,0.99414 1.00391,0.99414h0.99609v-1.99023zM33,24.00977v1.99023h0.99609c0.555,0 1.00391,-0.44414 1.00391,-0.99414c0,-0.549 -0.44891,-0.99609 -1.00391,-0.99609zM18.00391,31v0.99609c0,0.554 0.44414,1.00391 0.99414,1.00391c0.55,0 0.99609,-0.44891 0.99609,-1.00391v-0.99609zM22.01367,31v0.99609c0,0.554 0.44609,1.00391 0.99609,1.00391c0.55,0 0.99414,-0.44891 0.99414,-1.00391v-0.99609zM26.00977,31v0.99609c0,0.554 0.44414,1.00391 0.99414,1.00391c0.55,0 0.99414,-0.44891 0.99414,-1.00391v-0.99609z"></path></g></g></svg>