<svg xmlns="http://www.w3.org/2000/svg"  viewBox="0 0 64 64" width="256px" height="256px"><linearGradient id="_mPcP1lSExYvybCjcVGsQa" x1="19" x2="19" y1="15.106" y2="17.883" gradientUnits="userSpaceOnUse"><stop offset="0" stop-color="#6dc7ff"/><stop offset="1" stop-color="#e6abff"/></linearGradient><polygon fill="url(#_mPcP1lSExYvybCjcVGsQa)" points="19,18 15,20 15,14 23,14"/><linearGradient id="_mPcP1lSExYvybCjcVGsQb" x1="45" x2="45" y1="15.106" y2="17.883" gradientUnits="userSpaceOnUse"><stop offset="0" stop-color="#6dc7ff"/><stop offset="1" stop-color="#e6abff"/></linearGradient><polygon fill="url(#_mPcP1lSExYvybCjcVGsQb)" points="45,18 49,20 49,14 41,14"/><g><linearGradient id="_mPcP1lSExYvybCjcVGsQc" x1="32" x2="32" y1="28" y2="37.702" gradientUnits="userSpaceOnUse"><stop offset="0" stop-color="#6dc7ff"/><stop offset="1" stop-color="#e6abff"/></linearGradient><circle cx="32" cy="33" r="5" fill="url(#_mPcP1lSExYvybCjcVGsQc)"/></g><g><linearGradient id="_mPcP1lSExYvybCjcVGsQd" x1="32" x2="32" y1="6.574" y2="56.411" gradientUnits="userSpaceOnUse"><stop offset="0" stop-color="#1a6dff"/><stop offset="1" stop-color="#c822ff"/></linearGradient><path fill="url(#_mPcP1lSExYvybCjcVGsQd)" d="M43.039,30h-1.505c-0.109-0.345-0.242-0.679-0.391-1.005 c-0.171-0.373-0.082-0.814,0.208-1.104l0.548-0.548c0.781-0.781,0.781-2.048,0-2.829l-1.414-1.414 c-0.781-0.781-2.047-0.781-2.829,0l-0.548,0.548c-0.29,0.29-0.731,0.379-1.104,0.209c-0.326-0.149-0.66-0.282-1.005-0.391v-1.505 C35,20.878,34.122,20,33.039,20h-2.078C29.878,20,29,20.878,29,21.961v1.505c-0.345,0.109-0.679,0.242-1.005,0.391 c-0.373,0.171-0.814,0.082-1.104-0.209l-0.548-0.548c-0.781-0.781-2.047-0.781-2.829,0l-1.414,1.414 c-0.781,0.781-0.781,2.047,0,2.829l0.548,0.548c0.29,0.29,0.379,0.731,0.208,1.104c-0.149,0.326-0.282,0.659-0.391,1.005h-1.505 C19.878,30,19,30.878,19,31.961v2.078C19,35.122,19.878,36,20.961,36h1.505c0.109,0.345,0.242,0.679,0.391,1.004 c0.171,0.373,0.082,0.814-0.208,1.104l-0.548,0.548c-0.781,0.781-0.781,2.047,0,2.829l1.414,1.414 c0.39,0.39,0.902,0.585,1.414,0.585c0.513,0,1.025-0.195,1.415-0.585l0.549-0.549c0.29-0.29,0.731-0.379,1.104-0.208 c0.326,0.149,0.659,0.282,1.004,0.391v1.506C29,45.122,29.878,46,30.961,46h2.078C34.122,46,35,45.122,35,44.039v-1.506 c0.345-0.109,0.679-0.242,1.004-0.391c0.373-0.171,0.814-0.082,1.104,0.208l0.549,0.549c0.39,0.39,0.902,0.585,1.415,0.585 c0.512,0,1.024-0.195,1.414-0.585l1.414-1.414c0.781-0.781,0.781-2.048,0-2.829l-0.548-0.548c-0.29-0.29-0.379-0.731-0.208-1.104 c0.149-0.326,0.282-0.659,0.391-1.004h1.505C44.122,36,45,35.122,45,34.039v-2.078C45,30.878,44.122,30,43.039,30z M39.071,24.515 l1.414,1.415l-0.758,0.758c-0.424-0.517-0.897-0.991-1.414-1.414L39.071,24.515z M24.929,24.515l0.758,0.758 c-0.517,0.424-0.991,0.897-1.414,1.414l-0.758-0.758L24.929,24.515z M24.93,41.486l-1.415-1.416l0.758-0.758 c0.424,0.518,0.898,0.991,1.415,1.415L24.93,41.486z M39.071,41.485l-0.758-0.758c0.518-0.424,0.991-0.898,1.415-1.415l0.758,0.758 L39.071,41.485z M40.77,34c-0.467,0-0.872,0.323-0.975,0.778c-0.677,2.978-3.039,5.339-6.016,6.016 C33.323,40.897,33,41.302,33,41.769L33.039,44L31,44.039v-2.27c0-0.467-0.323-0.872-0.778-0.975 c-2.978-0.677-5.339-3.038-6.016-6.016C24.102,34.323,23.697,34,23.23,34L21,34.039L20.961,32h2.27 c0.467,0,0.872-0.323,0.975-0.778c0.677-2.978,3.038-5.339,6.016-6.016C30.677,25.102,31,24.697,31,24.23L30.961,22L33,21.961v2.27 c0,0.467,0.323,0.872,0.778,0.975c2.978,0.677,5.339,3.038,6.016,6.016C39.898,31.677,40.303,32,40.77,32h2.231l0.038,2H40.77z"/><linearGradient id="_mPcP1lSExYvybCjcVGsQe" x1="32" x2="32" y1="6.574" y2="56.411" gradientUnits="userSpaceOnUse"><stop offset="0" stop-color="#1a6dff"/><stop offset="1" stop-color="#c822ff"/></linearGradient><path fill="url(#_mPcP1lSExYvybCjcVGsQe)" d="M51.293,18.902c-0.098-0.011-0.195-0.032-0.293-0.045V16c0-1.654-1.458-3-3.25-3h-7.08 c-1.221-1.474-2.198-3.16-2.846-4.988C37.398,6.809,36.266,6,34.996,6h-5.992c-1.27,0-2.402,0.809-2.828,2.012 C25.529,9.84,24.551,11.526,23.33,13h-7.08C14.458,13,13,14.346,13,16v2.857c-0.098,0.013-0.195,0.034-0.293,0.045 C11.164,19.078,10,20.363,10,21.887v13.621c0,12.113,9.625,22.199,21.453,22.484C31.637,57.996,31.816,58,31.996,58 c0.001,0,0.007,0,0.008,0c0.18,0,0.359-0.004,0.543-0.008C44.375,57.707,54,47.621,54,35.508V21.887 C54,20.363,52.836,19.078,51.293,18.902z M47.75,15c0.689,0,1.25,0.449,1.25,1v2.453c-2.336-0.646-4.514-1.849-6.363-3.453H47.75z M15,16c0-0.551,0.561-1,1.25-1h5.113c-1.849,1.604-4.027,2.807-6.363,3.453V16z M52,35.508c0,9.442-6.414,17.515-15,19.816V53h-2 v2.748c-0.657,0.103-1.324,0.172-2,0.206V51h-2v4.954c-0.676-0.034-1.343-0.103-2-0.206V53h-2v2.324 c-8.586-2.301-15-10.374-15-19.816V21.887c0-0.516,0.395-0.934,0.934-0.996c6.738-0.773,12.82-5.68,15.125-12.215 C28.203,8.273,28.582,8,29.004,8h5.992c0.422,0,0.801,0.273,0.945,0.676c2.305,6.535,8.387,11.441,15.125,12.215 C51.605,20.953,52,21.371,52,21.887V35.508z"/></g></svg>