<svg xmlns="http://www.w3.org/2000/svg" xmlns:xlink="http://www.w3.org/1999/xlink" viewBox="0,0,256,256" width="96px" height="96px" fill-rule="nonzero"><g fill="none" fill-rule="nonzero" stroke="none" stroke-width="1" stroke-linecap="butt" stroke-linejoin="miter" stroke-miterlimit="10" stroke-dasharray="" stroke-dashoffset="0" font-family="none" font-weight="none" font-size="none" text-anchor="none" style="mix-blend-mode: normal"><g transform="scale(5.33333,5.33333)"><path d="M34,17c-0.42189,0.00083 -0.79891,-0.26321 -0.94237,-0.65996c-0.14346,-0.39675 -0.02249,-0.84085 0.30237,-1.11004l6,-5c0.42526,-0.35346 1.05654,-0.29526 1.41,0.13c0.35346,0.42526 0.29526,1.05654 -0.13,1.41c-6.58,5.48 -6.14,5.23 -6.64,5.23z" fill="#9244b7"></path><path d="M8,38c-0.42189,0.00083 -0.79891,-0.26321 -0.94237,-0.65996c-0.14346,-0.39675 -0.02249,-0.84085 0.30237,-1.11004l5.07,-4.23c0.42526,-0.35346 1.05654,-0.29526 1.41,0.13c0.35346,0.42526 0.29526,1.05654 -0.13,1.41c-5.59,4.66 -5.21,4.46 -5.71,4.46z" fill="#9244b7"></path><path d="M41,39c-0.53,0 -0.21,0.14 -6.72,-5.5c-0.33819,-0.37493 -0.34383,-0.94315 -0.01314,-1.32472c0.33069,-0.38156 0.89394,-0.45675 1.31314,-0.17528l6.07,5.26c0.30287,0.27508 0.40762,0.70692 0.26444,1.09019c-0.14318,0.38328 -0.50539,0.64067 -0.91444,0.64981z" fill="#9244b7"></path><path d="M13.07,16.26c-0.5,0 -0.27,0.08 -5.71,-4.49c-0.42526,-0.35346 -0.48346,-0.98474 -0.13,-1.41c0.35346,-0.42526 0.98474,-0.48346 1.41,-0.13l5.07,4.26c0.32486,0.26918 0.44583,0.71329 0.30237,1.11004c-0.14346,0.39675 -0.52048,0.66079 -0.94237,0.65996z" fill="#9244b7"></path><path d="M38,24c0,7.73199 -6.26801,14 -14,14c-13.18,0 -19,-16.59 -8.84,-24.84c4.18784,-3.41013 9.96371,-4.10736 14.84274,-1.79175c4.87903,2.31562 7.99106,7.2311 7.99726,12.63175z" fill="#88868e"></path><path d="M38,24c0.00538,3.22425 -1.11189,6.3498 -3.16,8.84c-5.5702,4.465 -13.60786,4.02374 -18.6558,-1.0242c-5.04794,-5.04794 -5.48921,-13.0856 -1.0242,-18.6558c4.18784,-3.41013 9.96371,-4.10736 14.84274,-1.79175c4.87903,2.31562 7.99106,7.2311 7.99726,12.63175z" fill="#beb9c8"></path><path d="M47,4l-5,3l-5,-3l5,-3z" fill="#dabb58"></path><path d="M47,4v6l-5,3v-6z" fill="#d5a84e"></path><path d="M42,7v6l-5,-3v-6z" fill="#de9c3d"></path><path d="M11,4l-5,3l-5,-3l5,-3z" fill="#5fa1e1"></path><path d="M11,4v6l-5,3v-6z" fill="#4384c3"></path><path d="M6,7v6l-5,-3v-6z" fill="#31506f"></path><path d="M47,38l-5,3l-5,-3l5,-3z" fill="#5fa1e1"></path><path d="M47,38v6l-5,3v-6z" fill="#4384c3"></path><path d="M42,41v6l-5,-3v-6z" fill="#31506f"></path><path d="M11,38l-5,3l-5,-3l5,-3z" fill="#dabb58"></path><path d="M6,41v6l-5,-3v-6z" fill="#de9c3d"></path><path d="M11,38v6l-5,3v-6z" fill="#d5a84e"></path><path d="M31,20l-7,4l-7,-4l7,-4z" fill="#dabb58"></path><path d="M31,20v8l-7,4v-8z" fill="#d5a84e"></path><path d="M24,24v8l-7,-4v-8z" fill="#de9c3d"></path></g></g></svg>